<mxfile host="65bd71144e" modified="2021-02-16T16:04:17.713Z" agent="5.0 (Windows NT 10.0; Win64; x64) AppleWebKit/537.36 (KHTML, like Gecko) Code/1.53.2 Chrome/87.0.4280.141 Electron/11.2.1 Safari/537.36" etag="wJF__ZDkxO2avY-Y3ztF" version="14.2.4" type="embed">
    <diagram id="RxHgThBi2dzHGYLJ1n1_" name="Page-1">
        <mxGraphModel dx="965" dy="676" grid="0" gridSize="10" guides="1" tooltips="1" connect="1" arrows="1" fold="1" page="1" pageScale="1" pageWidth="827" pageHeight="1169" background="#ffffff" math="0" shadow="0">
            <root>
                <mxCell id="0"/>
                <mxCell id="1" parent="0"/>
                <mxCell id="2" value="Users" style="shape=table;startSize=30;container=1;collapsible=1;childLayout=tableLayout;fixedRows=1;rowLines=0;fontStyle=1;align=center;resizeLast=1;rounded=1;fillColor=#1ba1e2;strokeColor=#006EAF;fontColor=#ffffff;strokeWidth=2;perimeterSpacing=0;shadow=1;sketch=0;" parent="1" vertex="1">
                    <mxGeometry x="60" y="130" width="180" height="220" as="geometry"/>
                </mxCell>
                <mxCell id="3" value="" style="shape=partialRectangle;collapsible=0;dropTarget=0;pointerEvents=0;fillColor=none;top=0;left=0;bottom=1;right=0;points=[[0,0.5],[1,0.5]];portConstraint=eastwest;strokeColor=#457B9D;fontColor=#1D3557;rounded=1;" parent="2" vertex="1">
                    <mxGeometry y="30" width="180" height="30" as="geometry"/>
                </mxCell>
                <mxCell id="4" value="PK" style="shape=partialRectangle;connectable=0;fillColor=none;top=0;left=0;bottom=0;right=0;fontStyle=1;overflow=hidden;strokeColor=#457B9D;fontColor=#1D3557;rounded=1;" parent="3" vertex="1">
                    <mxGeometry width="30" height="30" as="geometry"/>
                </mxCell>
                <mxCell id="5" value="ID" style="shape=partialRectangle;connectable=0;fillColor=none;top=0;left=0;bottom=0;right=0;align=left;spacingLeft=6;fontStyle=5;overflow=hidden;strokeColor=#457B9D;fontColor=#1D3557;rounded=1;" parent="3" vertex="1">
                    <mxGeometry x="30" width="150" height="30" as="geometry"/>
                </mxCell>
                <mxCell id="6" value="" style="shape=partialRectangle;collapsible=0;dropTarget=0;pointerEvents=0;fillColor=none;top=0;left=0;bottom=0;right=0;points=[[0,0.5],[1,0.5]];portConstraint=eastwest;strokeColor=#457B9D;fontColor=#1D3557;rounded=1;" parent="2" vertex="1">
                    <mxGeometry y="60" width="180" height="30" as="geometry"/>
                </mxCell>
                <mxCell id="7" value="" style="shape=partialRectangle;connectable=0;fillColor=none;top=0;left=0;bottom=0;right=0;editable=1;overflow=hidden;strokeColor=#457B9D;fontColor=#1D3557;rounded=1;" parent="6" vertex="1">
                    <mxGeometry width="30" height="30" as="geometry"/>
                </mxCell>
                <mxCell id="8" value="Nome" style="shape=partialRectangle;connectable=0;fillColor=none;top=0;left=0;bottom=0;right=0;align=left;spacingLeft=6;overflow=hidden;strokeColor=#457B9D;fontColor=#1D3557;rounded=1;" parent="6" vertex="1">
                    <mxGeometry x="30" width="150" height="30" as="geometry"/>
                </mxCell>
                <mxCell id="9" value="" style="shape=partialRectangle;collapsible=0;dropTarget=0;pointerEvents=0;fillColor=none;top=0;left=0;bottom=0;right=0;points=[[0,0.5],[1,0.5]];portConstraint=eastwest;strokeColor=#457B9D;fontColor=#1D3557;rounded=1;" parent="2" vertex="1">
                    <mxGeometry y="90" width="180" height="30" as="geometry"/>
                </mxCell>
                <mxCell id="10" value="" style="shape=partialRectangle;connectable=0;fillColor=none;top=0;left=0;bottom=0;right=0;editable=1;overflow=hidden;strokeColor=#457B9D;fontColor=#1D3557;rounded=1;" parent="9" vertex="1">
                    <mxGeometry width="30" height="30" as="geometry"/>
                </mxCell>
                <mxCell id="11" value="Cognome" style="shape=partialRectangle;connectable=0;fillColor=none;top=0;left=0;bottom=0;right=0;align=left;spacingLeft=6;overflow=hidden;strokeColor=#457B9D;fontColor=#1D3557;rounded=1;" parent="9" vertex="1">
                    <mxGeometry x="30" width="150" height="30" as="geometry"/>
                </mxCell>
                <mxCell id="12" value="" style="shape=partialRectangle;collapsible=0;dropTarget=0;pointerEvents=0;fillColor=none;top=0;left=0;bottom=0;right=0;points=[[0,0.5],[1,0.5]];portConstraint=eastwest;strokeColor=#457B9D;fontColor=#1D3557;rounded=1;" parent="2" vertex="1">
                    <mxGeometry y="120" width="180" height="30" as="geometry"/>
                </mxCell>
                <mxCell id="13" value="" style="shape=partialRectangle;connectable=0;fillColor=none;top=0;left=0;bottom=0;right=0;editable=1;overflow=hidden;strokeColor=#457B9D;fontColor=#1D3557;rounded=1;" parent="12" vertex="1">
                    <mxGeometry width="30" height="30" as="geometry"/>
                </mxCell>
                <mxCell id="14" value="EtÃ " style="shape=partialRectangle;connectable=0;fillColor=none;top=0;left=0;bottom=0;right=0;align=left;spacingLeft=6;overflow=hidden;strokeColor=#457B9D;fontColor=#1D3557;rounded=1;" parent="12" vertex="1">
                    <mxGeometry x="30" width="150" height="30" as="geometry"/>
                </mxCell>
                <mxCell id="15" value="" style="shape=partialRectangle;collapsible=0;dropTarget=0;pointerEvents=0;fillColor=none;top=0;left=0;bottom=0;right=0;points=[[0,0.5],[1,0.5]];portConstraint=eastwest;strokeColor=#457B9D;fontColor=#1D3557;rounded=1;" parent="2" vertex="1">
                    <mxGeometry y="150" width="180" height="30" as="geometry"/>
                </mxCell>
                <mxCell id="16" value="" style="shape=partialRectangle;connectable=0;fillColor=none;top=0;left=0;bottom=0;right=0;editable=1;overflow=hidden;strokeColor=#457B9D;fontColor=#1D3557;rounded=1;" parent="15" vertex="1">
                    <mxGeometry width="30" height="30" as="geometry"/>
                </mxCell>
                <mxCell id="17" value="Email" style="shape=partialRectangle;connectable=0;fillColor=none;top=0;left=0;bottom=0;right=0;align=left;spacingLeft=6;overflow=hidden;strokeColor=#457B9D;fontColor=#1D3557;rounded=1;" parent="15" vertex="1">
                    <mxGeometry x="30" width="150" height="30" as="geometry"/>
                </mxCell>
                <mxCell id="18" value="" style="shape=partialRectangle;collapsible=0;dropTarget=0;pointerEvents=0;fillColor=none;top=0;left=0;bottom=0;right=0;points=[[0,0.5],[1,0.5]];portConstraint=eastwest;strokeColor=#457B9D;fontColor=#1D3557;rounded=1;" vertex="1" parent="2">
                    <mxGeometry y="180" width="180" height="30" as="geometry"/>
                </mxCell>
                <mxCell id="19" value="" style="shape=partialRectangle;connectable=0;fillColor=none;top=0;left=0;bottom=0;right=0;editable=1;overflow=hidden;strokeColor=#457B9D;fontColor=#1D3557;rounded=1;" vertex="1" parent="18">
                    <mxGeometry width="30" height="30" as="geometry"/>
                </mxCell>
                <mxCell id="20" value="Password" style="shape=partialRectangle;connectable=0;fillColor=none;top=0;left=0;bottom=0;right=0;align=left;spacingLeft=6;overflow=hidden;strokeColor=#457B9D;fontColor=#1D3557;rounded=1;" vertex="1" parent="18">
                    <mxGeometry x="30" width="150" height="30" as="geometry"/>
                </mxCell>
                <mxCell id="22" value="Relationship" style="shape=rhombus;perimeter=rhombusPerimeter;whiteSpace=wrap;html=1;align=center;rounded=1;shadow=1;sketch=0;strokeColor=#457B9D;strokeWidth=2;fillColor=#A8DADC;gradientColor=none;fontColor=#1D3557;" vertex="1" parent="1">
                    <mxGeometry x="339" y="262" width="120" height="60" as="geometry"/>
                </mxCell>
                <mxCell id="23" value="" style="edgeStyle=entityRelationEdgeStyle;fontSize=12;html=1;endArrow=ERoneToMany;strokeColor=#457B9D;fillColor=#A8DADC;exitX=1;exitY=0.5;exitDx=0;exitDy=0;entryX=0;entryY=0.5;entryDx=0;entryDy=0;" edge="1" parent="1" source="9" target="22">
                    <mxGeometry width="100" height="100" relative="1" as="geometry">
                        <mxPoint x="267" y="394" as="sourcePoint"/>
                        <mxPoint x="367" y="294" as="targetPoint"/>
                    </mxGeometry>
                </mxCell>
                <mxCell id="24" value="" style="edgeStyle=entityRelationEdgeStyle;fontSize=12;html=1;endArrow=ERoneToMany;strokeColor=#457B9D;fillColor=#A8DADC;exitX=1;exitY=0.5;exitDx=0;exitDy=0;" edge="1" parent="1" source="22" target="25">
                    <mxGeometry width="100" height="100" relative="1" as="geometry">
                        <mxPoint x="459" y="292" as="sourcePoint"/>
                        <mxPoint x="570" y="292" as="targetPoint"/>
                    </mxGeometry>
                </mxCell>
                <mxCell id="25" value="Articoli" style="shape=table;startSize=30;container=1;collapsible=1;childLayout=tableLayout;fixedRows=1;rowLines=0;fontStyle=1;align=center;resizeLast=1;fillColor=#1ba1e2;strokeColor=#006EAF;fontColor=#ffffff;rounded=1;shadow=1;strokeWidth=2;" vertex="1" parent="1">
                    <mxGeometry x="550" y="173" width="180" height="161.3499755859375" as="geometry"/>
                </mxCell>
                <mxCell id="26" value="" style="shape=partialRectangle;collapsible=0;dropTarget=0;pointerEvents=0;fillColor=none;top=0;left=0;bottom=1;right=0;points=[[0,0.5],[1,0.5]];portConstraint=eastwest;fontColor=#000000;strokeColor=#0000CC;" vertex="1" parent="25">
                    <mxGeometry y="30" width="180" height="30" as="geometry"/>
                </mxCell>
                <mxCell id="27" value="PK" style="shape=partialRectangle;connectable=0;fillColor=none;top=0;left=0;bottom=0;right=0;fontStyle=1;overflow=hidden;fontColor=#000000;" vertex="1" parent="26">
                    <mxGeometry width="30" height="30" as="geometry"/>
                </mxCell>
                <mxCell id="28" value="UniqueID" style="shape=partialRectangle;connectable=0;fillColor=none;top=0;left=0;bottom=0;right=0;align=left;spacingLeft=6;fontStyle=5;overflow=hidden;fontColor=#000000;" vertex="1" parent="26">
                    <mxGeometry x="30" width="150" height="30" as="geometry"/>
                </mxCell>
                <mxCell id="38" value="" style="shape=partialRectangle;collapsible=0;dropTarget=0;pointerEvents=0;fillColor=none;top=0;left=0;bottom=1;right=0;points=[[0,0.5],[1,0.5]];portConstraint=eastwest;fontColor=#000000;strokeColor=#0000CC;" vertex="1" parent="25">
                    <mxGeometry y="60" width="180" height="30" as="geometry"/>
                </mxCell>
                <mxCell id="39" value="FK" style="shape=partialRectangle;connectable=0;fillColor=none;top=0;left=0;bottom=0;right=0;fontStyle=1;overflow=hidden;fontColor=#000000;" vertex="1" parent="38">
                    <mxGeometry width="30" height="30" as="geometry"/>
                </mxCell>
                <mxCell id="40" value="UserID" style="shape=partialRectangle;connectable=0;fillColor=none;top=0;left=0;bottom=0;right=0;align=left;spacingLeft=6;fontStyle=5;overflow=hidden;fontColor=#000000;" vertex="1" parent="38">
                    <mxGeometry x="30" width="150" height="30" as="geometry"/>
                </mxCell>
                <mxCell id="29" value="" style="shape=partialRectangle;collapsible=0;dropTarget=0;pointerEvents=0;fillColor=none;top=0;left=0;bottom=0;right=0;points=[[0,0.5],[1,0.5]];portConstraint=eastwest;" vertex="1" parent="25">
                    <mxGeometry y="90" width="180" height="30" as="geometry"/>
                </mxCell>
                <mxCell id="30" value="" style="shape=partialRectangle;connectable=0;fillColor=none;top=0;left=0;bottom=0;right=0;editable=1;overflow=hidden;" vertex="1" parent="29">
                    <mxGeometry width="30" height="30" as="geometry"/>
                </mxCell>
                <mxCell id="31" value="Testo" style="shape=partialRectangle;connectable=0;fillColor=none;top=0;left=0;bottom=0;right=0;align=left;spacingLeft=6;overflow=hidden;fontColor=#000000;" vertex="1" parent="29">
                    <mxGeometry x="30" width="150" height="30" as="geometry"/>
                </mxCell>
                <mxCell id="32" value="" style="shape=partialRectangle;collapsible=0;dropTarget=0;pointerEvents=0;fillColor=none;top=0;left=0;bottom=0;right=0;points=[[0,0.5],[1,0.5]];portConstraint=eastwest;" vertex="1" parent="25">
                    <mxGeometry y="120" width="180" height="31" as="geometry"/>
                </mxCell>
                <mxCell id="33" value="" style="shape=partialRectangle;connectable=0;fillColor=none;top=0;left=0;bottom=0;right=0;editable=1;overflow=hidden;" vertex="1" parent="32">
                    <mxGeometry width="30" height="31" as="geometry"/>
                </mxCell>
                <mxCell id="34" value="Titolo" style="shape=partialRectangle;connectable=0;fillColor=none;top=0;left=0;bottom=0;right=0;align=left;spacingLeft=6;overflow=hidden;fontColor=#000000;" vertex="1" parent="32">
                    <mxGeometry x="30" width="150" height="31" as="geometry"/>
                </mxCell>
                <mxCell id="41" value="Relationship" style="shape=rhombus;perimeter=rhombusPerimeter;whiteSpace=wrap;html=1;align=center;rounded=1;shadow=1;sketch=0;strokeColor=#457B9D;strokeWidth=2;fillColor=#A8DADC;gradientColor=none;fontColor=#000000;" vertex="1" parent="1">
                    <mxGeometry x="354" y="495" width="120" height="60" as="geometry"/>
                </mxCell>
                <mxCell id="42" value="" style="edgeStyle=entityRelationEdgeStyle;fontSize=12;html=1;endArrow=ERmany;startArrow=ERmany;strokeColor=#457B9D;fillColor=#A8DADC;entryX=0.5;entryY=1;entryDx=0;entryDy=0;exitX=1;exitY=0.5;exitDx=0;exitDy=0;" edge="1" parent="1" source="41" target="25">
                    <mxGeometry width="100" height="100" relative="1" as="geometry">
                        <mxPoint x="455" y="434" as="sourcePoint"/>
                        <mxPoint x="555" y="334.35" as="targetPoint"/>
                    </mxGeometry>
                </mxCell>
                <mxCell id="43" value="Categorie" style="shape=table;startSize=30;container=1;collapsible=1;childLayout=tableLayout;fixedRows=1;rowLines=0;fontStyle=1;align=center;resizeLast=1;rounded=1;shadow=1;sketch=0;strokeColor=#006EAF;strokeWidth=2;fillColor=#1ba1e2;fontColor=#ffffff;" vertex="1" parent="1">
                    <mxGeometry x="66" y="637" width="180" height="100" as="geometry"/>
                </mxCell>
                <mxCell id="44" value="" style="shape=partialRectangle;collapsible=0;dropTarget=0;pointerEvents=0;fillColor=none;top=0;left=0;bottom=1;right=0;points=[[0,0.5],[1,0.5]];portConstraint=eastwest;strokeColor=#0000CC;" vertex="1" parent="43">
                    <mxGeometry y="30" width="180" height="30" as="geometry"/>
                </mxCell>
                <mxCell id="45" value="PK" style="shape=partialRectangle;connectable=0;fillColor=none;top=0;left=0;bottom=0;right=0;fontStyle=1;overflow=hidden;fontColor=#000000;" vertex="1" parent="44">
                    <mxGeometry width="30" height="30" as="geometry"/>
                </mxCell>
                <mxCell id="46" value="UniqueID" style="shape=partialRectangle;connectable=0;fillColor=none;top=0;left=0;bottom=0;right=0;align=left;spacingLeft=6;fontStyle=5;overflow=hidden;verticalAlign=middle;fontColor=#000000;" vertex="1" parent="44">
                    <mxGeometry x="30" width="150" height="30" as="geometry"/>
                </mxCell>
                <mxCell id="47" value="" style="shape=partialRectangle;collapsible=0;dropTarget=0;pointerEvents=0;fillColor=none;top=0;left=0;bottom=0;right=0;points=[[0,0.5],[1,0.5]];portConstraint=eastwest;" vertex="1" parent="43">
                    <mxGeometry y="60" width="180" height="30" as="geometry"/>
                </mxCell>
                <mxCell id="48" value="" style="shape=partialRectangle;connectable=0;fillColor=none;top=0;left=0;bottom=0;right=0;editable=1;overflow=hidden;" vertex="1" parent="47">
                    <mxGeometry width="30" height="30" as="geometry"/>
                </mxCell>
                <mxCell id="49" value="Nome" style="shape=partialRectangle;connectable=0;fillColor=none;top=0;left=0;bottom=0;right=0;align=left;spacingLeft=6;overflow=hidden;shadow=0;strokeColor=#000000;fontColor=#000000;" vertex="1" parent="47">
                    <mxGeometry x="30" width="150" height="30" as="geometry"/>
                </mxCell>
                <mxCell id="56" value="" style="edgeStyle=entityRelationEdgeStyle;fontSize=12;html=1;endArrow=ERmany;startArrow=ERmany;strokeColor=#457B9D;fillColor=#A8DADC;exitX=1;exitY=0.5;exitDx=0;exitDy=0;" edge="1" parent="1" source="47" target="41">
                    <mxGeometry width="100" height="100" relative="1" as="geometry">
                        <mxPoint x="369" y="584" as="sourcePoint"/>
                        <mxPoint x="469" y="484" as="targetPoint"/>
                    </mxGeometry>
                </mxCell>
                <mxCell id="60" value="Amministratori" style="shape=table;startSize=30;container=1;collapsible=1;childLayout=tableLayout;fixedRows=1;rowLines=0;fontStyle=1;align=center;resizeLast=1;rounded=1;shadow=0;sketch=0;strokeColor=#006EAF;strokeWidth=2;fillColor=#1ba1e2;fontColor=#ffffff;swimlaneFillColor=none;" vertex="1" parent="1">
                    <mxGeometry x="60" y="489" width="180" height="100" as="geometry"/>
                </mxCell>
                <mxCell id="61" value="" style="shape=partialRectangle;collapsible=0;dropTarget=0;pointerEvents=0;fillColor=none;top=0;left=0;bottom=1;right=0;points=[[0,0.5],[1,0.5]];portConstraint=eastwest;" vertex="1" parent="60">
                    <mxGeometry y="30" width="180" height="30" as="geometry"/>
                </mxCell>
                <mxCell id="62" value="PK" style="shape=partialRectangle;connectable=0;fillColor=none;top=0;left=0;bottom=0;right=0;fontStyle=1;overflow=hidden;fontColor=#000000;" vertex="1" parent="61">
                    <mxGeometry width="30" height="30" as="geometry"/>
                </mxCell>
                <mxCell id="63" value="UniqueID" style="shape=partialRectangle;connectable=0;fillColor=none;top=0;left=0;bottom=0;right=0;align=left;spacingLeft=6;fontStyle=5;overflow=hidden;fontColor=#000000;strokeColor=#0000CC;" vertex="1" parent="61">
                    <mxGeometry x="30" width="150" height="30" as="geometry"/>
                </mxCell>
                <mxCell id="64" value="" style="shape=partialRectangle;collapsible=0;dropTarget=0;pointerEvents=0;fillColor=none;top=0;left=0;bottom=0;right=0;points=[[0,0.5],[1,0.5]];portConstraint=eastwest;" vertex="1" parent="60">
                    <mxGeometry y="60" width="180" height="30" as="geometry"/>
                </mxCell>
                <mxCell id="65" value="" style="shape=partialRectangle;connectable=0;fillColor=none;top=0;left=0;bottom=0;right=0;editable=1;overflow=hidden;" vertex="1" parent="64">
                    <mxGeometry width="30" height="30" as="geometry"/>
                </mxCell>
                <mxCell id="66" value="Livello" style="shape=partialRectangle;connectable=0;fillColor=none;top=0;left=0;bottom=0;right=0;align=left;spacingLeft=6;overflow=hidden;fontColor=#000000;" vertex="1" parent="64">
                    <mxGeometry x="30" width="150" height="30" as="geometry"/>
                </mxCell>
                <mxCell id="73" value="Relationship" style="shape=rhombus;perimeter=rhombusPerimeter;whiteSpace=wrap;html=1;align=center;rounded=1;shadow=0;sketch=0;strokeColor=#0000CC;strokeWidth=2;fillColor=#A8DADC;gradientColor=none;fontColor=#000000;" vertex="1" parent="1">
                    <mxGeometry x="225" y="385" width="120" height="60" as="geometry"/>
                </mxCell>
                <mxCell id="74" value="" style="edgeStyle=entityRelationEdgeStyle;fontSize=12;html=1;endArrow=ERmandOne;startArrow=ERmandOne;strokeColor=#457B9D;fillColor=#A8DADC;exitX=0.5;exitY=0;exitDx=0;exitDy=0;entryX=0.5;entryY=1;entryDx=0;entryDy=0;" edge="1" parent="1" source="73" target="2">
                    <mxGeometry width="100" height="100" relative="1" as="geometry">
                        <mxPoint x="159" y="386" as="sourcePoint"/>
                        <mxPoint x="259" y="286" as="targetPoint"/>
                    </mxGeometry>
                </mxCell>
                <mxCell id="75" value="" style="edgeStyle=entityRelationEdgeStyle;fontSize=12;html=1;endArrow=ERmandOne;startArrow=ERmandOne;strokeColor=#457B9D;fillColor=#A8DADC;exitX=0.5;exitY=0;exitDx=0;exitDy=0;entryX=0.5;entryY=1;entryDx=0;entryDy=0;" edge="1" parent="1" source="60" target="73">
                    <mxGeometry width="100" height="100" relative="1" as="geometry">
                        <mxPoint x="143" y="475" as="sourcePoint"/>
                        <mxPoint x="243" y="375" as="targetPoint"/>
                    </mxGeometry>
                </mxCell>
            </root>
        </mxGraphModel>
    </diagram>
</mxfile>